<svg width="64" height="64" viewBox="0 0 64 64" xmlns="http://www.w3.org/2000/svg">
  <g fill="none" stroke="#9ca3af" stroke-width="4" stroke-linecap="round" stroke-linejoin="round">
    <!-- Opening curly brace { -->
    <path d="M20 12 C16 12, 14 16, 14 20 L14 26 C14 28, 12 30, 10 30 C12 30, 14 32, 14 34 L14 40 C14 44, 16 48, 20 48"/>
    
    <!-- Closing curly brace } -->
    <path d="M44 12 C48 12, 50 16, 50 20 L50 26 C50 28, 52 30, 54 30 C52 30, 50 32, 50 34 L50 40 C50 44, 48 48, 44 48"/>
  </g>
</svg>